<mxfile host="Electron" agent="Mozilla/5.0 (Windows NT 10.0; Win64; x64) AppleWebKit/537.36 (KHTML, like Gecko) draw.io/26.0.9 Chrome/128.0.6613.186 Electron/32.2.5 Safari/537.36" version="26.0.9">
  <diagram name="Page-1" id="Hd1QctK_ycgthDyzwRJV">
    <mxGraphModel dx="1562" dy="917" grid="1" gridSize="10" guides="1" tooltips="1" connect="1" arrows="1" fold="1" page="1" pageScale="1" pageWidth="850" pageHeight="1100" math="0" shadow="0">
      <root>
        <mxCell id="0" />
        <mxCell id="1" parent="0" />
        <mxCell id="LFHjzcVOOhwiKR8U0p6x-2" value="Host OS" style="text;html=1;align=center;verticalAlign=middle;whiteSpace=wrap;rounded=0;fontStyle=1;fontSize=36;" parent="1" vertex="1">
          <mxGeometry x="15" y="130" width="190" height="30" as="geometry" />
        </mxCell>
        <mxCell id="LFHjzcVOOhwiKR8U0p6x-4" value="Docker&lt;div&gt;&lt;font style=&quot;font-size: 18px;&quot;&gt;(hbm_local_net)&lt;/font&gt;&lt;/div&gt;" style="text;html=1;align=left;verticalAlign=middle;whiteSpace=wrap;rounded=0;fontStyle=1;fontSize=36;" parent="1" vertex="1">
          <mxGeometry x="20" y="780" width="60" height="30" as="geometry" />
        </mxCell>
        <mxCell id="LFHjzcVOOhwiKR8U0p6x-7" value="redis" style="rounded=0;whiteSpace=wrap;html=1;fontStyle=1" parent="1" vertex="1">
          <mxGeometry x="70" y="660" width="120" height="30" as="geometry" />
        </mxCell>
        <mxCell id="LFHjzcVOOhwiKR8U0p6x-8" value="postgres-db" style="rounded=0;whiteSpace=wrap;html=1;fontStyle=1" parent="1" vertex="1">
          <mxGeometry x="670" y="660" width="100" height="30" as="geometry" />
        </mxCell>
        <mxCell id="LFHjzcVOOhwiKR8U0p6x-9" value="rabbitmq" style="rounded=0;whiteSpace=wrap;html=1;fontStyle=1" parent="1" vertex="1">
          <mxGeometry x="375" y="660" width="100" height="30" as="geometry" />
        </mxCell>
        <mxCell id="LFHjzcVOOhwiKR8U0p6x-11" value="" style="endArrow=none;dashed=1;html=1;rounded=0;strokeWidth=4;" parent="1" source="PhkMaT-kQFNF9_gTiUD9-9" edge="1">
          <mxGeometry width="50" height="50" relative="1" as="geometry">
            <mxPoint x="330" y="440" as="sourcePoint" />
            <mxPoint x="830" y="440" as="targetPoint" />
          </mxGeometry>
        </mxCell>
        <mxCell id="LFHjzcVOOhwiKR8U0p6x-13" value="&lt;div&gt;Hbm React App&lt;/div&gt;" style="rounded=1;whiteSpace=wrap;html=1;" parent="1" vertex="1">
          <mxGeometry x="365" y="160" width="120" height="60" as="geometry" />
        </mxCell>
        <mxCell id="LFHjzcVOOhwiKR8U0p6x-15" value="" style="endArrow=classic;html=1;rounded=0;exitX=0.5;exitY=1;exitDx=0;exitDy=0;entryX=0.5;entryY=0;entryDx=0;entryDy=0;" parent="1" source="LFHjzcVOOhwiKR8U0p6x-13" target="LFHjzcVOOhwiKR8U0p6x-16" edge="1">
          <mxGeometry width="50" height="50" relative="1" as="geometry">
            <mxPoint x="400" y="500" as="sourcePoint" />
            <mxPoint x="170" y="380" as="targetPoint" />
          </mxGeometry>
        </mxCell>
        <mxCell id="LFHjzcVOOhwiKR8U0p6x-17" value="" style="endArrow=none;dashed=1;html=1;rounded=0;strokeWidth=4;" parent="1" target="LFHjzcVOOhwiKR8U0p6x-16" edge="1">
          <mxGeometry width="50" height="50" relative="1" as="geometry">
            <mxPoint x="10" y="440" as="sourcePoint" />
            <mxPoint x="830" y="440" as="targetPoint" />
          </mxGeometry>
        </mxCell>
        <mxCell id="LFHjzcVOOhwiKR8U0p6x-16" value="&lt;div style=&quot;background-color: rgb(255, 255, 255); font-family: Consolas, &amp;quot;Courier New&amp;quot;, monospace; font-size: 14px; line-height: 19px; white-space: pre;&quot;&gt;&lt;span style=&quot;color: rgb(0, 0, 255);&quot;&gt;OS: 8081&lt;br&gt;Cnt: 3000&lt;/span&gt;&lt;/div&gt;" style="rounded=0;whiteSpace=wrap;html=1;align=left;spacingLeft=11;" parent="1" vertex="1">
          <mxGeometry x="60" y="410" width="110" height="60" as="geometry" />
        </mxCell>
        <mxCell id="LFHjzcVOOhwiKR8U0p6x-23" value="" style="endArrow=classic;html=1;rounded=0;exitX=0.5;exitY=1;exitDx=0;exitDy=0;entryX=0.5;entryY=0;entryDx=0;entryDy=0;" parent="1" source="LFHjzcVOOhwiKR8U0p6x-13" edge="1">
          <mxGeometry width="50" height="50" relative="1" as="geometry">
            <mxPoint x="435" y="230" as="sourcePoint" />
            <mxPoint x="260" y="410" as="targetPoint" />
          </mxGeometry>
        </mxCell>
        <mxCell id="LFHjzcVOOhwiKR8U0p6x-24" value="" style="endArrow=classic;html=1;rounded=0;exitX=0.5;exitY=1;exitDx=0;exitDy=0;entryX=0.5;entryY=0;entryDx=0;entryDy=0;" parent="1" source="LFHjzcVOOhwiKR8U0p6x-13" target="PhkMaT-kQFNF9_gTiUD9-11" edge="1">
          <mxGeometry width="50" height="50" relative="1" as="geometry">
            <mxPoint x="435" y="230" as="sourcePoint" />
            <mxPoint x="730" y="410" as="targetPoint" />
          </mxGeometry>
        </mxCell>
        <mxCell id="LFHjzcVOOhwiKR8U0p6x-26" value="&lt;div style=&quot;background-color: rgb(255, 255, 255); font-family: Consolas, &amp;quot;Courier New&amp;quot;, monospace; font-size: 14px; line-height: 19px; white-space: pre;&quot;&gt;&lt;span style=&quot;color: rgb(0, 0, 255);&quot;&gt;Container: &lt;/span&gt;&lt;span style=&quot;color: rgb(0, 128, 0);&quot;&gt;6379&lt;/span&gt;&lt;/div&gt;" style="rounded=0;whiteSpace=wrap;html=1;align=left;spacingLeft=11;" parent="1" vertex="1">
          <mxGeometry x="60" y="610" width="140" height="40" as="geometry" />
        </mxCell>
        <mxCell id="LFHjzcVOOhwiKR8U0p6x-27" value="&lt;div style=&quot;background-color: rgb(255, 255, 255); font-family: Consolas, &amp;quot;Courier New&amp;quot;, monospace; font-size: 14px; line-height: 19px; white-space: pre;&quot;&gt;&lt;span style=&quot;color: rgb(0, 0, 255);&quot;&gt;Container: &lt;/span&gt;&lt;span style=&quot;color: rgb(0, 128, 0);&quot;&gt;20672&lt;/span&gt;&lt;/div&gt;" style="rounded=0;whiteSpace=wrap;html=1;align=left;spacingLeft=11;" parent="1" vertex="1">
          <mxGeometry x="355" y="610" width="140" height="40" as="geometry" />
        </mxCell>
        <mxCell id="LFHjzcVOOhwiKR8U0p6x-28" value="&lt;div style=&quot;background-color: rgb(255, 255, 255); font-family: Consolas, &amp;quot;Courier New&amp;quot;, monospace; font-size: 14px; line-height: 19px; white-space: pre;&quot;&gt;&lt;span style=&quot;color: rgb(0, 0, 255);&quot;&gt;Container: &lt;/span&gt;&lt;span style=&quot;color: rgb(0, 128, 0);&quot;&gt;5432&lt;/span&gt;&lt;/div&gt;" style="rounded=0;whiteSpace=wrap;html=1;align=left;spacingLeft=11;" parent="1" vertex="1">
          <mxGeometry x="650" y="610" width="140" height="40" as="geometry" />
        </mxCell>
        <mxCell id="PhkMaT-kQFNF9_gTiUD9-1" value="hbm-node-app" style="rounded=0;whiteSpace=wrap;html=1;fontStyle=1" vertex="1" parent="1">
          <mxGeometry x="70" y="510" width="100" height="30" as="geometry" />
        </mxCell>
        <mxCell id="PhkMaT-kQFNF9_gTiUD9-2" value="hbm-java-app" style="rounded=0;whiteSpace=wrap;html=1;fontStyle=1" vertex="1" parent="1">
          <mxGeometry x="205" y="510" width="100" height="30" as="geometry" />
        </mxCell>
        <mxCell id="PhkMaT-kQFNF9_gTiUD9-3" value="hbm-dotnet-app" style="rounded=0;whiteSpace=wrap;html=1;fontStyle=1" vertex="1" parent="1">
          <mxGeometry x="710" y="510" width="100" height="30" as="geometry" />
        </mxCell>
        <mxCell id="PhkMaT-kQFNF9_gTiUD9-4" value="hbm-python-app" style="rounded=0;whiteSpace=wrap;html=1;fontStyle=1" vertex="1" parent="1">
          <mxGeometry x="570" y="510" width="100" height="30" as="geometry" />
        </mxCell>
        <mxCell id="PhkMaT-kQFNF9_gTiUD9-5" value="hbm-react-app" style="rounded=0;whiteSpace=wrap;html=1;fontStyle=1" vertex="1" parent="1">
          <mxGeometry x="395" y="510" width="100" height="30" as="geometry" />
        </mxCell>
        <mxCell id="PhkMaT-kQFNF9_gTiUD9-6" value="" style="endArrow=none;dashed=1;html=1;rounded=0;strokeWidth=4;" edge="1" parent="1" source="LFHjzcVOOhwiKR8U0p6x-16">
          <mxGeometry width="50" height="50" relative="1" as="geometry">
            <mxPoint x="170" y="440" as="sourcePoint" />
            <mxPoint x="190" y="440" as="targetPoint" />
          </mxGeometry>
        </mxCell>
        <mxCell id="PhkMaT-kQFNF9_gTiUD9-7" value="&lt;div style=&quot;background-color: rgb(255, 255, 255); font-family: Consolas, &amp;quot;Courier New&amp;quot;, monospace; font-size: 14px; line-height: 19px; white-space: pre;&quot;&gt;&lt;span style=&quot;color: rgb(0, 0, 255);&quot;&gt;OS: 8083&lt;br&gt;Cnt: 8080&lt;/span&gt;&lt;/div&gt;" style="rounded=0;whiteSpace=wrap;html=1;align=left;spacingLeft=11;" vertex="1" parent="1">
          <mxGeometry x="205" y="410" width="110" height="60" as="geometry" />
        </mxCell>
        <mxCell id="PhkMaT-kQFNF9_gTiUD9-10" value="" style="endArrow=none;dashed=1;html=1;rounded=0;strokeWidth=4;" edge="1" parent="1" target="PhkMaT-kQFNF9_gTiUD9-9">
          <mxGeometry width="50" height="50" relative="1" as="geometry">
            <mxPoint x="330" y="440" as="sourcePoint" />
            <mxPoint x="830" y="440" as="targetPoint" />
          </mxGeometry>
        </mxCell>
        <mxCell id="PhkMaT-kQFNF9_gTiUD9-8" value="&lt;div style=&quot;background-color: rgb(255, 255, 255); font-family: Consolas, &amp;quot;Courier New&amp;quot;, monospace; font-size: 14px; line-height: 19px; white-space: pre;&quot;&gt;&lt;span style=&quot;color: rgb(0, 0, 255);&quot;&gt;OS: 8085&lt;br&gt;Cnt: 80&lt;/span&gt;&lt;/div&gt;" style="rounded=0;whiteSpace=wrap;html=1;align=left;spacingLeft=11;" vertex="1" parent="1">
          <mxGeometry x="390" y="410" width="110" height="60" as="geometry" />
        </mxCell>
        <mxCell id="PhkMaT-kQFNF9_gTiUD9-9" value="&lt;div style=&quot;background-color: rgb(255, 255, 255); font-family: Consolas, &amp;quot;Courier New&amp;quot;, monospace; font-size: 14px; line-height: 19px; white-space: pre;&quot;&gt;&lt;span style=&quot;color: rgb(0, 0, 255);&quot;&gt;OS: 8084&lt;br&gt;Cnt: 8080&lt;/span&gt;&lt;/div&gt;" style="rounded=0;whiteSpace=wrap;html=1;align=left;spacingLeft=11;" vertex="1" parent="1">
          <mxGeometry x="570" y="410" width="110" height="60" as="geometry" />
        </mxCell>
        <mxCell id="PhkMaT-kQFNF9_gTiUD9-11" value="&lt;div style=&quot;background-color: rgb(255, 255, 255); font-family: Consolas, &amp;quot;Courier New&amp;quot;, monospace; font-size: 14px; line-height: 19px; white-space: pre;&quot;&gt;&lt;span style=&quot;color: rgb(0, 0, 255);&quot;&gt;OS: 8082&lt;br&gt;Cnt: 8080&lt;/span&gt;&lt;/div&gt;" style="rounded=0;whiteSpace=wrap;html=1;align=left;spacingLeft=11;" vertex="1" parent="1">
          <mxGeometry x="710" y="410" width="110" height="60" as="geometry" />
        </mxCell>
        <mxCell id="PhkMaT-kQFNF9_gTiUD9-12" value="" style="endArrow=classic;html=1;rounded=0;exitX=0.5;exitY=1;exitDx=0;exitDy=0;entryX=0.5;entryY=0;entryDx=0;entryDy=0;" edge="1" parent="1" source="LFHjzcVOOhwiKR8U0p6x-13" target="PhkMaT-kQFNF9_gTiUD9-9">
          <mxGeometry width="50" height="50" relative="1" as="geometry">
            <mxPoint x="435" y="230" as="sourcePoint" />
            <mxPoint x="270" y="420" as="targetPoint" />
          </mxGeometry>
        </mxCell>
        <mxCell id="PhkMaT-kQFNF9_gTiUD9-13" value="" style="endArrow=classic;html=1;rounded=0;exitX=0.5;exitY=0;exitDx=0;exitDy=0;entryX=0.5;entryY=1;entryDx=0;entryDy=0;fillColor=#d5e8d4;strokeColor=#82b366;strokeWidth=3;" edge="1" parent="1" source="PhkMaT-kQFNF9_gTiUD9-8" target="LFHjzcVOOhwiKR8U0p6x-13">
          <mxGeometry width="50" height="50" relative="1" as="geometry">
            <mxPoint x="400" y="500" as="sourcePoint" />
            <mxPoint x="450" y="450" as="targetPoint" />
          </mxGeometry>
        </mxCell>
      </root>
    </mxGraphModel>
  </diagram>
</mxfile>
